PathFileType	4	(X/Y/Z)	E:\Qualisys_Data\Carbon_Farble_Plate\Data\Amateur_Runner\S14\T1\S14T1V23_c3d.trc
DataRate	CameraRate	NumFrames	NumMarkers	Units	OrigDataRate	OrigDataStartFrame	OrigNumFrames
200.000000	200.000000	4	39	mm	200.000000	115	308
Frame#	Time	LSHO			RSHO			LICST			RICST			LASIS			LHEEL			RASIS			LTROC			RTROC			SACR			LTH1			LSK4			LTH2			LTH3			RHM5			LSK2			LTH4			RTH1			LTOE			RTH2			RTH3			RTH4			LLEP			RLEP			LSK1			LSK3			RSK1			LHM5			RSK2			LFT1			RSK3			RSK4			LLME			RLME			RTOE			RHEEL			RFT1			RFT2			LFT2			
		X1	Y1	Z1	X2	Y2	Z2	X3	Y3	Z3	X4	Y4	Z4	X5	Y5	Z5	X6	Y6	Z6	X7	Y7	Z7	X8	Y8	Z8	X9	Y9	Z9	X10	Y10	Z10	X11	Y11	Z11	X12	Y12	Z12	X13	Y13	Z13	X14	Y14	Z14	X15	Y15	Z15	X16	Y16	Z16	X17	Y17	Z17	X18	Y18	Z18	X19	Y19	Z19	X20	Y20	Z20	X21	Y21	Z21	X22	Y22	Z22	X23	Y23	Z23	X24	Y24	Z24	X25	Y25	Z25	X26	Y26	Z26	X27	Y27	Z27	X28	Y28	Z28	X29	Y29	Z29	X30	Y30	Z30	X31	Y31	Z31	X32	Y32	Z32	X33	Y33	Z33	X34	Y34	Z34	X35	Y35	Z35	X36	Y36	Z36	X37	Y37	Z37	X38	Y38	Z38	X39	Y39	Z39	

116	0.575	-632.25390625	1396.4306640625	-498.6496887207031	-635.5870971679688	1416.761840820312	-191.9561920166016	-709.0623168945312	964.0037231445312	-452.2444763183594	-664.4970092773438	961.6133422851562	-175.9070892333984	-668.5296020507812	911.2821655273438	-429.8712463378906	-1115.01904296875	152.4996337890625	-297.2770385742188	-641.9259033203125	919.1893310546876	-197.2642059326172	-825.1929931640625	854.66357421875	-448.1551513671875	-781.0245361328125	873.9679565429688	-134.2269897460938	-823.0365600585938	982.40087890625	-304.5725402832031	-767.2263793945312	619.8884887695312	-451.1299743652344	-972.7276611328124	318.8946838378906	-388.004638671875	-841.0914306640625	630.4442749023438	-429.6239013671875	-769.4801025390625	523.657470703125	-422.1725769042969	-835.0093994140625	210.0425262451172	-137.1361999511719	-913.938720703125	395.8519592285156	-411.5553894042969	-846.8416748046875	534.66748046875	-405.2791748046875	-549.4588012695312	705.8700561523438	-140.5609283447266	-885.40625	63.6695442199707	-341.0389404296875	-616.8339233398438	668.9456787109375	-124.839958190918	-499.8809204101562	620.892333984375	-163.4636535644531	-569.536376953125	578.7139892578125	-139.3143310546875	-810.277587890625	458.6736145019531	-409.7339477539062	-527.400390625	532.1251831054688	-146.8631591796875	-846.689453125	348.2796936035156	-403.3924560546875	-909.1771850585938	269.3421936035156	-383.3828735351562	-591.666748046875	443.4659423828125	-150.0737152099609	-955.25	64.15023040771484	-397.5345764160156	-638.0839233398438	515.2992553710938	-148.2551879882812	-1107.791259765625	126.3578033447266	-270.6622314453125	-682.3233642578125	393.9175415039062	-161.6551361083984	-719.3740844726562	464.1317749023438	-159.7956237792969	-1049.082763671875	157.6663970947266	-359.9302673339844	-850.4364624023438	350.5728759765625	-173.8352508544922	-794.2891845703125	146.6456146240234	-196.0232543945312	-903.4862670898438	381.09423828125	-229.1459350585938	-925.1098022460938	351.774658203125	-259.0372009277344	-922.52197265625	370.5118408203125	-202.1269836425781	-1123.785522460938	126.0341339111328	-322.1896362304688
117	0.58	-609.9808349609375	1401.009033203125	-497.5771789550781	-617.6927490234375	1421.34716796875	-191.7312469482422	-687.00439453125	966.9356689453124	-451.9284973144531	-643.8768310546875	965.7440795898438	-175.9317626953125	-646.8494873046875	913.7864379882812	-429.3172607421875	-1109.094116210938	161.1462707519531	-299.5340270996094	-621.44677734375	923.734130859375	-196.8951110839844	-804.1954956054688	858.2304077148438	-448.5337829589844	-760.0037841796875	878.9928588867188	-133.7608947753906	-801.8858642578125	985.523193359375	-305.0751342773438	-753.1764526367188	623.8143310546875	-451.2086181640625	-965.8616333007812	325.981201171875	-389.40771484375	-826.9821166992188	636.466796875	-429.5819091796875	-758.8733520507812	527.4049682617188	-422.4129638671875	-793.6560668945312	202.0561218261719	-137.14697265625	-907.003173828125	401.9725646972656	-412.2613220214844	-835.4766845703125	541.1676635742188	-406.1366271972656	-526.7194213867188	712.7516479492188	-141.2126770019531	-885.7777709960938	62.73825454711914	-340.388916015625	-593.4127197265625	674.8064575195312	-125.5929794311523	-475.6597595214844	628.70556640625	-164.4318237304688	-545.0740356445312	585.5564575195312	-140.5136566162109	-801.0155029296875	463.6838073730469	-410.0674743652344	-502.1671447753906	539.2257690429688	-148.6002655029297	-839.2383422851562	354.1513671875	-404.7043762207031	-902.9404296875	275.519287109375	-385.0043640136719	-562.8331909179688	446.9819030761719	-150.7245635986328	-954.121337890625	64.49830627441406	-398.2453918457031	-612.5952758789062	516.7119750976562	-149.3808441162109	-1102.6376953125	135.0847473144531	-272.3748168945312	-650.8728637695312	392.7987060546875	-162.1143035888672	-691.0989379882812	461.2467956542969	-159.7150573730469	-1042.910034179688	163.9763488769531	-361.2549743652344	-816.994140625	341.0570068359375	-173.9941253662109	-749.5633544921875	140.7215576171875	-195.9162445068359	-871.4126586914062	369.2600402832031	-228.8099822998047	-890.6326904296875	338.0304260253906	-256.8314514160156	-890.0758666992188	357.3678283691406	-201.6154174804688	-1118.2841796875	134.5129241943359	-324.0327758789062
118	0.585	-587.5531616210938	1405.670654296875	-496.3309326171875	-599.4959716796875	1425.882690429688	-191.3216400146484	-664.546875	969.8292236328124	-451.477294921875	-622.5624389648438	970.8107299804688	-175.9265899658203	-625.1769409179688	916.6090698242188	-428.8890686035156	-1101.946899414062	170.1655578613281	-301.6982421875	-600.5697021484375	928.3506469726562	-196.50146484375	-783.1572265625	862.1040649414062	-449.183349609375	-738.4335327148438	883.4489135742188	-132.9244689941406	-781.2986450195312	989.4467163085938	-306.2385559082031	-739.0317993164062	628.2025756835938	-451.2268676757812	-958.2988891601562	333.52392578125	-390.4100646972656	-812.55419921875	642.8953247070312	-429.9066467285156	-746.8637084960938	532.0440063476562	-422.8057250976562	-751.4744262695312	194.2354736328125	-137.4741821289062	-898.9750366210938	408.6142883300781	-413.249755859375	-824.0882568359375	547.7077026367188	-406.7442932128906	-503.9111022949219	719.0131225585938	-141.7759704589844	-883.2324829101562	63.13597869873047	-342.5052795410156	-570.1051025390625	680.4796142578125	-126.2983779907227	-452.2465209960938	635.3775024414062	-165.5908355712891	-521.0667114257812	591.8117065429688	-141.7301940917969	-791.4453125	469.6212768554688	-411.1227416992188	-477.1938171386719	545.427490234375	-150.6521911621094	-831.8314208984375	359.8673095703125	-405.9462585449219	-895.658447265625	282.0758666992188	-386.759765625	-533.934814453125	449.955078125	-151.5566253662109	-951.9384765625	65.22749328613281	-399.1014404296875	-587.1329956054688	516.9957275390625	-150.3081359863281	-1096.3095703125	144.3004150390625	-274.232666015625	-619.6104736328125	391.7225952148438	-162.6352233886719	-663.3068237304688	458.294189453125	-160.1494293212891	-1036.432983398438	170.675048828125	-363.4249877929688	-782.5009765625	332.3886108398438	-173.8618316650391	-704.427490234375	135.8987731933594	-196.5670471191406	-839.1378784179688	357.4643249511719	-228.13916015625	-856.5973510742188	324.6781311035156	-256.3680419921875	-857.1402587890625	344.0177001953125	-201.0129547119141	-1111.91064453125	143.4431610107422	-325.639892578125
119	0.59	-565.5670776367188	1410.227905273438	-495.2301635742188	-581.0691528320312	1430.447998046875	-190.7645416259766	-641.8438110351562	973.2052612304688	-451.0578002929688	-602.6320190429688	975.3363647460938	-175.7970275878906	-603.48486328125	919.8656616210938	-428.4246826171875	-1091.814697265625	180.3225708007812	-304.6725463867188	-580.02685546875	933.2135009765624	-196.544921875	-762.2948608398438	865.9340209960938	-449.4755554199219	-717.1078491210938	888.8284301757812	-131.9903411865234	-759.9212646484375	992.6514892578124	-306.6899108886719	-724.30078125	632.5738525390625	-451.7962951660156	-950.2095336914062	340.7392578125	-391.9693908691406	-797.7348022460938	649.4779052734375	-429.9832153320312	-734.6587524414062	536.7620849609375	-423.3044738769531	-709.2105102539062	186.7526245117188	-137.578369140625	-890.2033081054688	415.9200439453125	-414.2933654785156	-811.4505004882812	554.1737060546875	-407.2082824707031	-481.4395141601562	724.8592529296875	-142.384521484375	-881.4794921875	62.39027404785156	-343.4393310546875	-547.2561645507812	685.6885986328125	-127.0347213745117	-428.6175231933594	642.0311279296875	-166.3656921386719	-497.3102416992188	597.6923217773438	-142.6576843261719	-781.5614624023438	475.3269653320312	-411.9779968261719	-453.0335083007812	551.8517456054688	-151.7713012695312	-822.9984741210938	366.4402465820312	-407.1223449707031	-887.8297729492188	288.7001037597656	-388.847412109375	-505.1821899414062	452.5072326660156	-152.3412780761719	-948.7105102539062	66.09744262695312	-400.1619262695312	-562.0093383789062	517.42919921875	-151.0825500488281	-1089.043701171875	153.8263549804688	-276.1572875976562	-588.1309204101562	390.2691345214844	-163.5158386230469	-634.9967041015625	454.59130859375	-160.0501556396484	-1028.908447265625	177.1538543701172	-365.1272583007812	-748.39501953125	322.5335693359375	-174.0584564208984	-659.4948120117188	131.1557769775391	-197.1478881835938	-806.4088134765625	343.4427185058594	-229.1974639892578	-820.1536865234375	311.7002258300781	-256.9566650390625	-823.4122924804688	330.4514770507812	-200.5697021484375	-1104.956176757812	152.7811889648438	-327.9743041992188
